<mxfile host="Electron" agent="Mozilla/5.0 (X11; Linux x86_64) AppleWebKit/537.36 (KHTML, like Gecko) draw.io/24.7.5 Chrome/126.0.6478.183 Electron/31.3.0 Safari/537.36" version="24.7.5">
  <diagram name="Page-1" id="Zzuh4L5NclJAUwRjFxwU">
    <mxGraphModel dx="1221" dy="872" grid="0" gridSize="10" guides="1" tooltips="1" connect="1" arrows="1" fold="1" page="1" pageScale="1" pageWidth="850" pageHeight="1100" math="0" shadow="0">
      <root>
        <mxCell id="0" />
        <mxCell id="1" parent="0" />
        <mxCell id="4ekCLtPjgeDB-qCBTvaT-2" value="ELF Header" style="rounded=0;whiteSpace=wrap;html=1;labelPosition=center;verticalLabelPosition=top;align=center;verticalAlign=bottom;" parent="1" vertex="1">
          <mxGeometry x="110" y="100" width="180" height="619" as="geometry" />
        </mxCell>
        <mxCell id="4ekCLtPjgeDB-qCBTvaT-1" value="" style="shape=image;verticalLabelPosition=bottom;labelBackgroundColor=default;verticalAlign=top;aspect=fixed;imageAspect=0;image=http://localhost:8000/images/elf.png;" parent="1" vertex="1">
          <mxGeometry x="550" y="100" width="497.62" height="730" as="geometry" />
        </mxCell>
        <mxCell id="4ekCLtPjgeDB-qCBTvaT-9" value="" style="group" parent="1" vertex="1" connectable="0">
          <mxGeometry x="130" y="120" width="140" height="200" as="geometry" />
        </mxCell>
        <mxCell id="4ekCLtPjgeDB-qCBTvaT-7" value="Program Header Table" style="rounded=0;whiteSpace=wrap;html=1;verticalAlign=top;" parent="4ekCLtPjgeDB-qCBTvaT-9" vertex="1">
          <mxGeometry width="140" height="170" as="geometry" />
        </mxCell>
        <mxCell id="4ekCLtPjgeDB-qCBTvaT-8" value="" style="group" parent="4ekCLtPjgeDB-qCBTvaT-9" vertex="1" connectable="0">
          <mxGeometry x="25" y="30" width="90" height="120" as="geometry" />
        </mxCell>
        <mxCell id="4ekCLtPjgeDB-qCBTvaT-3" value="LOAD" style="rounded=0;whiteSpace=wrap;html=1;" parent="4ekCLtPjgeDB-qCBTvaT-8" vertex="1">
          <mxGeometry width="90" height="40" as="geometry" />
        </mxCell>
        <mxCell id="4ekCLtPjgeDB-qCBTvaT-6" value="..." style="rounded=0;whiteSpace=wrap;html=1;" parent="4ekCLtPjgeDB-qCBTvaT-8" vertex="1">
          <mxGeometry y="80" width="90" height="40" as="geometry" />
        </mxCell>
        <mxCell id="4ekCLtPjgeDB-qCBTvaT-4" value="DYN" style="rounded=0;whiteSpace=wrap;html=1;fillColor=none;strokeColor=#82b366;fontColor=#82B366;" parent="4ekCLtPjgeDB-qCBTvaT-8" vertex="1">
          <mxGeometry y="40" width="90" height="40" as="geometry" />
        </mxCell>
        <mxCell id="4ekCLtPjgeDB-qCBTvaT-10" value="..." style="text;html=1;align=center;verticalAlign=middle;whiteSpace=wrap;rounded=0;" parent="1" vertex="1">
          <mxGeometry x="170" y="280" width="60" height="30" as="geometry" />
        </mxCell>
        <mxCell id="4ekCLtPjgeDB-qCBTvaT-24" value="..." style="text;html=1;align=center;verticalAlign=middle;whiteSpace=wrap;rounded=0;" parent="1" vertex="1">
          <mxGeometry x="170" y="685" width="60" height="30" as="geometry" />
        </mxCell>
        <mxCell id="4ekCLtPjgeDB-qCBTvaT-35" value="" style="group" parent="1" vertex="1" connectable="0">
          <mxGeometry x="345" y="120" width="170" height="140" as="geometry" />
        </mxCell>
        <mxCell id="4ekCLtPjgeDB-qCBTvaT-25" value="Program Header #1" style="rounded=0;whiteSpace=wrap;html=1;fillColor=none;strokeColor=#82b366;fontSize=15;verticalAlign=top;" parent="4ekCLtPjgeDB-qCBTvaT-35" vertex="1">
          <mxGeometry width="170" height="140" as="geometry" />
        </mxCell>
        <mxCell id="4ekCLtPjgeDB-qCBTvaT-32" value="" style="group" parent="4ekCLtPjgeDB-qCBTvaT-35" vertex="1" connectable="0">
          <mxGeometry x="15" y="40" width="150" height="75" as="geometry" />
        </mxCell>
        <mxCell id="4ekCLtPjgeDB-qCBTvaT-28" value="Size: 288" style="text;html=1;align=left;verticalAlign=middle;whiteSpace=wrap;rounded=0;" parent="4ekCLtPjgeDB-qCBTvaT-32" vertex="1">
          <mxGeometry width="60" height="30" as="geometry" />
        </mxCell>
        <mxCell id="4ekCLtPjgeDB-qCBTvaT-29" value="Type: 2 (PT_DYNAMIC)" style="text;html=1;align=left;verticalAlign=middle;whiteSpace=wrap;rounded=0;" parent="4ekCLtPjgeDB-qCBTvaT-32" vertex="1">
          <mxGeometry y="15" width="150" height="30" as="geometry" />
        </mxCell>
        <mxCell id="4ekCLtPjgeDB-qCBTvaT-30" value="Offset: 990" style="text;html=1;align=left;verticalAlign=middle;whiteSpace=wrap;rounded=0;fontStyle=4" parent="4ekCLtPjgeDB-qCBTvaT-32" vertex="1">
          <mxGeometry y="30" width="70" height="30" as="geometry" />
        </mxCell>
        <mxCell id="4ekCLtPjgeDB-qCBTvaT-31" value="Align: 4" style="text;html=1;align=left;verticalAlign=middle;whiteSpace=wrap;rounded=0;fontStyle=0" parent="4ekCLtPjgeDB-qCBTvaT-32" vertex="1">
          <mxGeometry y="45" width="70" height="30" as="geometry" />
        </mxCell>
        <mxCell id="4ekCLtPjgeDB-qCBTvaT-36" value="" style="group" parent="1" vertex="1" connectable="0">
          <mxGeometry x="340" y="320" width="170" height="140" as="geometry" />
        </mxCell>
        <mxCell id="4ekCLtPjgeDB-qCBTvaT-37" value="Section Header #0" style="rounded=0;whiteSpace=wrap;html=1;fillColor=none;strokeColor=#6c8ebf;fontSize=15;verticalAlign=top;" parent="4ekCLtPjgeDB-qCBTvaT-36" vertex="1">
          <mxGeometry width="170" height="140" as="geometry" />
        </mxCell>
        <mxCell id="4ekCLtPjgeDB-qCBTvaT-38" value="" style="group" parent="4ekCLtPjgeDB-qCBTvaT-36" vertex="1" connectable="0">
          <mxGeometry x="15" y="40" width="150" height="75" as="geometry" />
        </mxCell>
        <mxCell id="4ekCLtPjgeDB-qCBTvaT-39" value="Name: 26" style="text;html=1;align=left;verticalAlign=middle;whiteSpace=wrap;rounded=0;" parent="4ekCLtPjgeDB-qCBTvaT-38" vertex="1">
          <mxGeometry width="60" height="30" as="geometry" />
        </mxCell>
        <mxCell id="4ekCLtPjgeDB-qCBTvaT-40" value="Type: dynsym" style="text;html=1;align=left;verticalAlign=middle;whiteSpace=wrap;rounded=0;" parent="4ekCLtPjgeDB-qCBTvaT-38" vertex="1">
          <mxGeometry y="15" width="150" height="30" as="geometry" />
        </mxCell>
        <mxCell id="4ekCLtPjgeDB-qCBTvaT-41" value="Address: 0x5A8" style="text;html=1;align=left;verticalAlign=middle;whiteSpace=wrap;rounded=0;fontStyle=4" parent="4ekCLtPjgeDB-qCBTvaT-38" vertex="1">
          <mxGeometry y="30" width="100" height="30" as="geometry" />
        </mxCell>
        <mxCell id="4ekCLtPjgeDB-qCBTvaT-42" value="Align: 8" style="text;html=1;align=left;verticalAlign=middle;whiteSpace=wrap;rounded=0;fontStyle=0" parent="4ekCLtPjgeDB-qCBTvaT-38" vertex="1">
          <mxGeometry y="45" width="70" height="30" as="geometry" />
        </mxCell>
        <mxCell id="4ekCLtPjgeDB-qCBTvaT-45" value="" style="group;fillColor=none;strokeColor=#F08C00;" parent="1" vertex="1" connectable="0">
          <mxGeometry x="340" y="523" width="170" height="140" as="geometry" />
        </mxCell>
        <mxCell id="4ekCLtPjgeDB-qCBTvaT-46" value="Section #0, Dyn Symbol" style="rounded=0;whiteSpace=wrap;html=1;fillColor=none;strokeColor=#d79b00;fontSize=15;verticalAlign=top;" parent="4ekCLtPjgeDB-qCBTvaT-45" vertex="1">
          <mxGeometry width="170" height="140" as="geometry" />
        </mxCell>
        <mxCell id="4ekCLtPjgeDB-qCBTvaT-47" value="" style="group" parent="4ekCLtPjgeDB-qCBTvaT-45" vertex="1" connectable="0">
          <mxGeometry x="15" y="40" width="150" height="75" as="geometry" />
        </mxCell>
        <mxCell id="4ekCLtPjgeDB-qCBTvaT-48" value="Name: 26" style="text;html=1;align=left;verticalAlign=middle;whiteSpace=wrap;rounded=0;" parent="4ekCLtPjgeDB-qCBTvaT-47" vertex="1">
          <mxGeometry width="60" height="30" as="geometry" />
        </mxCell>
        <mxCell id="4ekCLtPjgeDB-qCBTvaT-49" value="Type: dynsym" style="text;html=1;align=left;verticalAlign=middle;whiteSpace=wrap;rounded=0;" parent="4ekCLtPjgeDB-qCBTvaT-47" vertex="1">
          <mxGeometry y="15" width="150" height="30" as="geometry" />
        </mxCell>
        <mxCell id="4ekCLtPjgeDB-qCBTvaT-50" value="Address: 0x5A8" style="text;html=1;align=left;verticalAlign=middle;whiteSpace=wrap;rounded=0;fontStyle=4" parent="4ekCLtPjgeDB-qCBTvaT-47" vertex="1">
          <mxGeometry y="30" width="100" height="30" as="geometry" />
        </mxCell>
        <mxCell id="4ekCLtPjgeDB-qCBTvaT-51" value="Align: 8" style="text;html=1;align=left;verticalAlign=middle;whiteSpace=wrap;rounded=0;fontStyle=0" parent="4ekCLtPjgeDB-qCBTvaT-47" vertex="1">
          <mxGeometry y="45" width="70" height="30" as="geometry" />
        </mxCell>
        <mxCell id="4ekCLtPjgeDB-qCBTvaT-12" value="Section Header Table" style="rounded=0;whiteSpace=wrap;html=1;verticalAlign=top;" parent="1" vertex="1">
          <mxGeometry x="130" y="320" width="140" height="170" as="geometry" />
        </mxCell>
        <mxCell id="4ekCLtPjgeDB-qCBTvaT-13" value="" style="group" parent="1" vertex="1" connectable="0">
          <mxGeometry x="155" y="350" width="90" height="120" as="geometry" />
        </mxCell>
        <mxCell id="4ekCLtPjgeDB-qCBTvaT-15" value=".text" style="rounded=0;whiteSpace=wrap;html=1;" parent="4ekCLtPjgeDB-qCBTvaT-13" vertex="1">
          <mxGeometry y="40" width="90" height="40" as="geometry" />
        </mxCell>
        <mxCell id="4ekCLtPjgeDB-qCBTvaT-16" value="..." style="rounded=0;whiteSpace=wrap;html=1;" parent="4ekCLtPjgeDB-qCBTvaT-13" vertex="1">
          <mxGeometry y="80" width="90" height="40" as="geometry" />
        </mxCell>
        <mxCell id="4ekCLtPjgeDB-qCBTvaT-14" value=".dynsym" style="rounded=0;whiteSpace=wrap;html=1;fillColor=none;strokeColor=#6c8ebf;fontColor=#6C8EBF;" parent="4ekCLtPjgeDB-qCBTvaT-13" vertex="1">
          <mxGeometry width="90" height="40" as="geometry" />
        </mxCell>
        <mxCell id="4ekCLtPjgeDB-qCBTvaT-23" value="..." style="text;html=1;align=center;verticalAlign=middle;whiteSpace=wrap;rounded=0;" parent="1" vertex="1">
          <mxGeometry x="170" y="480" width="60" height="30" as="geometry" />
        </mxCell>
        <mxCell id="4ekCLtPjgeDB-qCBTvaT-54" style="edgeStyle=orthogonalEdgeStyle;rounded=0;orthogonalLoop=1;jettySize=auto;html=1;exitX=0;exitY=0.5;exitDx=0;exitDy=0;entryX=0.5;entryY=0;entryDx=0;entryDy=0;curved=1;fillColor=#dae8fc;strokeColor=#6c8ebf;" parent="1" source="4ekCLtPjgeDB-qCBTvaT-41" target="4ekCLtPjgeDB-qCBTvaT-18" edge="1">
          <mxGeometry relative="1" as="geometry">
            <Array as="points">
              <mxPoint x="306" y="405" />
              <mxPoint x="306" y="498" />
              <mxPoint x="200" y="498" />
            </Array>
          </mxGeometry>
        </mxCell>
        <mxCell id="4ekCLtPjgeDB-qCBTvaT-18" value="Section .dynsym" style="rounded=0;whiteSpace=wrap;html=1;verticalAlign=top;" parent="1" vertex="1">
          <mxGeometry x="130" y="520" width="140" height="170" as="geometry" />
        </mxCell>
        <mxCell id="4ekCLtPjgeDB-qCBTvaT-19" value="" style="group" parent="1" vertex="1" connectable="0">
          <mxGeometry x="155" y="550" width="90" height="120" as="geometry" />
        </mxCell>
        <mxCell id="4ekCLtPjgeDB-qCBTvaT-20" value="null" style="rounded=0;whiteSpace=wrap;html=1;" parent="4ekCLtPjgeDB-qCBTvaT-19" vertex="1">
          <mxGeometry width="90" height="40" as="geometry" />
        </mxCell>
        <mxCell id="4ekCLtPjgeDB-qCBTvaT-22" value="..." style="rounded=0;whiteSpace=wrap;html=1;" parent="4ekCLtPjgeDB-qCBTvaT-19" vertex="1">
          <mxGeometry y="80" width="90" height="40" as="geometry" />
        </mxCell>
        <mxCell id="4ekCLtPjgeDB-qCBTvaT-21" value="clock_gettime" style="rounded=0;whiteSpace=wrap;html=1;fillColor=none;strokeColor=#F08C00;fontColor=#f08c00;" parent="4ekCLtPjgeDB-qCBTvaT-19" vertex="1">
          <mxGeometry y="40" width="90" height="40" as="geometry" />
        </mxCell>
        <mxCell id="4ekCLtPjgeDB-qCBTvaT-56" value="" style="rounded=0;whiteSpace=wrap;html=1;" parent="1" vertex="1">
          <mxGeometry x="110" y="733" width="401" height="49" as="geometry" />
        </mxCell>
        <mxCell id="4ekCLtPjgeDB-qCBTvaT-57" value="STRTAB" style="text;html=1;align=center;verticalAlign=middle;resizable=0;points=[];autosize=1;strokeColor=none;fillColor=none;" parent="1" vertex="1">
          <mxGeometry x="278.5" y="733" width="64" height="26" as="geometry" />
        </mxCell>
        <mxCell id="4ekCLtPjgeDB-qCBTvaT-58" value="clock_gettime\0" style="text;html=1;align=left;verticalAlign=middle;resizable=0;points=[];autosize=1;strokeColor=none;fillColor=none;fontColor=#F08C00;fontStyle=0" parent="1" vertex="1">
          <mxGeometry x="115" y="750" width="101" height="26" as="geometry" />
        </mxCell>
        <mxCell id="4ekCLtPjgeDB-qCBTvaT-59" value="__vdso_time\0" style="text;html=1;align=left;verticalAlign=middle;resizable=0;points=[];autosize=1;strokeColor=none;fillColor=none;fontColor=#000000;fontStyle=0" parent="1" vertex="1">
          <mxGeometry x="199" y="750" width="96" height="26" as="geometry" />
        </mxCell>
        <mxCell id="4ekCLtPjgeDB-qCBTvaT-60" value=".dynsym\0" style="text;html=1;align=left;verticalAlign=middle;resizable=0;points=[];autosize=1;strokeColor=none;fillColor=none;fontColor=#6C8EBF;fontStyle=0" parent="1" vertex="1">
          <mxGeometry x="279" y="750" width="73" height="26" as="geometry" />
        </mxCell>
        <mxCell id="4ekCLtPjgeDB-qCBTvaT-61" value="__vdso_clock_getres\0__vds..." style="text;html=1;align=left;verticalAlign=middle;resizable=0;points=[];autosize=1;strokeColor=none;fillColor=none;fontColor=#000000;fontStyle=0" parent="1" vertex="1">
          <mxGeometry x="337" y="750" width="183" height="26" as="geometry" />
        </mxCell>
        <mxCell id="4ekCLtPjgeDB-qCBTvaT-63" value="" style="endArrow=classic;html=1;rounded=0;exitX=1;exitY=0.5;exitDx=0;exitDy=0;entryX=0;entryY=0;entryDx=0;entryDy=0;fillColor=#dae8fc;strokeColor=#6c8ebf;" parent="1" source="4ekCLtPjgeDB-qCBTvaT-14" target="4ekCLtPjgeDB-qCBTvaT-37" edge="1">
          <mxGeometry width="50" height="50" relative="1" as="geometry">
            <mxPoint x="575" y="599" as="sourcePoint" />
            <mxPoint x="625" y="549" as="targetPoint" />
          </mxGeometry>
        </mxCell>
        <mxCell id="4ekCLtPjgeDB-qCBTvaT-64" value="" style="edgeStyle=none;orthogonalLoop=1;jettySize=auto;html=1;rounded=0;exitX=1;exitY=0.5;exitDx=0;exitDy=0;entryX=0;entryY=0;entryDx=0;entryDy=0;fillColor=#d5e8d4;strokeColor=#82b366;" parent="1" source="4ekCLtPjgeDB-qCBTvaT-4" target="4ekCLtPjgeDB-qCBTvaT-25" edge="1">
          <mxGeometry width="100" relative="1" as="geometry">
            <mxPoint x="255" y="170" as="sourcePoint" />
            <mxPoint x="355" y="170" as="targetPoint" />
            <Array as="points" />
          </mxGeometry>
        </mxCell>
        <mxCell id="4ekCLtPjgeDB-qCBTvaT-65" value="" style="edgeStyle=none;orthogonalLoop=1;jettySize=auto;html=1;rounded=0;exitX=1;exitY=0.5;exitDx=0;exitDy=0;entryX=0;entryY=0;entryDx=0;entryDy=0;fillColor=#ffe6cc;strokeColor=#F08C00;" parent="1" source="4ekCLtPjgeDB-qCBTvaT-21" target="4ekCLtPjgeDB-qCBTvaT-46" edge="1">
          <mxGeometry width="100" relative="1" as="geometry">
            <mxPoint x="264" y="554" as="sourcePoint" />
            <mxPoint x="364" y="554" as="targetPoint" />
            <Array as="points" />
          </mxGeometry>
        </mxCell>
        <mxCell id="4ekCLtPjgeDB-qCBTvaT-34" style="edgeStyle=orthogonalEdgeStyle;rounded=0;orthogonalLoop=1;jettySize=auto;html=1;curved=1;exitX=0;exitY=0;exitDx=0;exitDy=0;fillColor=#d5e8d4;strokeColor=#82b366;entryX=0.5;entryY=0;entryDx=0;entryDy=0;" parent="1" source="4ekCLtPjgeDB-qCBTvaT-31" target="4ekCLtPjgeDB-qCBTvaT-12" edge="1">
          <mxGeometry relative="1" as="geometry">
            <mxPoint x="309.97" y="205" as="sourcePoint" />
            <mxPoint x="199.99857142857147" y="360" as="targetPoint" />
            <Array as="points">
              <mxPoint x="310" y="205" />
              <mxPoint x="310" y="300" />
              <mxPoint x="200" y="300" />
            </Array>
          </mxGeometry>
        </mxCell>
      </root>
    </mxGraphModel>
  </diagram>
</mxfile>
